<svg width="109" height="28" viewBox="0 0 109 28" fill="none" xmlns="http://www.w3.org/2000/svg">
<path d="M13.9238 0.00161763C16.7114 0.00161763 18.8767 0.735811 20.3926 2.22784C21.9315 3.71565 22.6959 5.66979 22.6959 8.07334L22.6959 9.0656C22.6944 10.7575 22.2634 12.2396 21.3977 13.5048C20.6569 14.6228 19.6542 15.4828 18.3937 16.0843L23.4785 28H17.1638L10.6948 12.5577H13.4363C14.638 12.5577 15.4999 12.2556 16.0569 11.6823C16.6441 11.0791 16.9499 10.2149 16.9514 9.06533L16.9514 8.07329C16.9514 7.24144 16.7543 6.3761 16.1386 5.77023C15.6089 5.22394 14.7882 4.93522 13.6411 4.93522H5.58473L5.58469 28H0V0.00161763H13.9238Z" fill="white"/>
<path d="M76.6081 0H82.6675L71.3336 27.9982H65.4056L54.0718 0L60.1278 3.07804e-05L68.3679 20.3559L76.6081 0Z" fill="white"/>
<path d="M56.3261 27.9995H50.2669L42.0324 7.65757L33.7978 27.9998H27.7385L39.07 0.00101688L44.9946 0.00317488L56.3261 27.9995Z" fill="white"/>
<path d="M102.941 27.999L94.7056 7.6557L86.4706 27.9988H80.4111L91.7438 0.000597363L97.6673 0.000427387L109 27.999H102.941Z" fill="white"/>
</svg>
